<svg width="1440" height="720" viewBox="0 0 1440 720" fill="none" xmlns="http://www.w3.org/2000/svg">
  <defs>
    <linearGradient id="bg" x1="86" y1="72" x2="1328" y2="672" gradientUnits="userSpaceOnUse">
      <stop stop-color="#101725"/>
      <stop offset="0.45" stop-color="#16233C"/>
      <stop offset="1" stop-color="#0A7C66"/>
    </linearGradient>
    <linearGradient id="gold" x1="262" y1="156" x2="1138" y2="596" gradientUnits="userSpaceOnUse">
      <stop stop-color="#F6D365"/>
      <stop offset="1" stop-color="#C9A227"/>
    </linearGradient>
    <linearGradient id="glass" x1="780" y1="124" x2="1188" y2="568" gradientUnits="userSpaceOnUse">
      <stop stop-color="white" stop-opacity="0.22"/>
      <stop offset="1" stop-color="white" stop-opacity="0.04"/>
    </linearGradient>
    <filter id="shadow" x="720" y="84" width="520" height="520" filterUnits="userSpaceOnUse" color-interpolation-filters="sRGB">
      <feDropShadow dx="0" dy="24" stdDeviation="28" flood-color="#040812" flood-opacity="0.35"/>
    </filter>
  </defs>

  <rect width="1440" height="720" rx="36" fill="url(#bg)"/>

  <circle cx="1238" cy="122" r="154" fill="#FFFFFF" fill-opacity="0.05"/>
  <circle cx="179" cy="608" r="218" fill="#FFFFFF" fill-opacity="0.04"/>
  <circle cx="1114" cy="598" r="112" fill="#FFFFFF" fill-opacity="0.05"/>

  <path d="M0 600C165 520 302 504 474 540C632 573 796 649 940 636C1098 622 1262 490 1440 468V720H0V600Z" fill="#FFFFFF" fill-opacity="0.04"/>

  <g opacity="0.22">
    <path d="M94 146H628" stroke="white" stroke-opacity="0.28" stroke-width="2"/>
    <path d="M94 206H628" stroke="white" stroke-opacity="0.14" stroke-width="2"/>
    <path d="M94 266H628" stroke="white" stroke-opacity="0.14" stroke-width="2"/>
    <path d="M94 326H628" stroke="white" stroke-opacity="0.14" stroke-width="2"/>
    <path d="M94 386H628" stroke="white" stroke-opacity="0.14" stroke-width="2"/>
  </g>

  <g opacity="0.85">
    <path d="M110 330C154 296 202 302 244 256C292 204 348 184 408 208C468 232 510 296 564 280C602 268 626 234 658 206" stroke="url(#gold)" stroke-width="8" stroke-linecap="round"/>
    <circle cx="244" cy="256" r="10" fill="#F6D365"/>
    <circle cx="408" cy="208" r="10" fill="#F6D365"/>
    <circle cx="564" cy="280" r="10" fill="#F6D365"/>
    <circle cx="658" cy="206" r="10" fill="#F6D365"/>
  </g>

  <text x="94" y="126" fill="white" fill-opacity="0.78" font-family="Segoe UI, Arial, sans-serif" font-size="22" font-weight="700" letter-spacing="4">BIG DATA FINAL PROJECT</text>
  <text x="94" y="228" fill="white" font-family="Georgia, Times New Roman, serif" font-size="86" font-weight="700">Galbay</text>
  <text x="94" y="314" fill="white" font-family="Georgia, Times New Roman, serif" font-size="86" font-weight="700">Predictor</text>

  <text x="94" y="390" fill="#D7E2F0" font-family="Segoe UI, Arial, sans-serif" font-size="28" font-weight="500">
    Mapping repayment stress, regret, and fintech risk signals
  </text>
  <text x="94" y="432" fill="#D7E2F0" font-family="Segoe UI, Arial, sans-serif" font-size="28" font-weight="500">
    from Indonesian public review data
  </text>

  <g>
    <rect x="94" y="500" width="168" height="74" rx="20" fill="#FFFFFF" fill-opacity="0.09" stroke="#FFFFFF" stroke-opacity="0.18"/>
    <text x="126" y="536" fill="#F6D365" font-family="Segoe UI, Arial, sans-serif" font-size="18" font-weight="700">349K</text>
    <text x="126" y="566" fill="white" fill-opacity="0.82" font-family="Segoe UI, Arial, sans-serif" font-size="18">reviews</text>
  </g>

  <g>
    <rect x="282" y="500" width="188" height="74" rx="20" fill="#FFFFFF" fill-opacity="0.09" stroke="#FFFFFF" stroke-opacity="0.18"/>
    <text x="314" y="536" fill="#F6D365" font-family="Segoe UI, Arial, sans-serif" font-size="18" font-weight="700">44</text>
    <text x="314" y="566" fill="white" fill-opacity="0.82" font-family="Segoe UI, Arial, sans-serif" font-size="18">fintech apps</text>
  </g>

  <g>
    <rect x="490" y="500" width="222" height="74" rx="20" fill="#FFFFFF" fill-opacity="0.09" stroke="#FFFFFF" stroke-opacity="0.18"/>
    <text x="522" y="536" fill="#F6D365" font-family="Segoe UI, Arial, sans-serif" font-size="18" font-weight="700">DVC + Drive</text>
    <text x="522" y="566" fill="white" fill-opacity="0.82" font-family="Segoe UI, Arial, sans-serif" font-size="18">team-ready dataset sync</text>
  </g>

  <g filter="url(#shadow)">
    <rect x="798" y="116" width="382" height="452" rx="32" fill="url(#glass)" stroke="white" stroke-opacity="0.16"/>
    <rect x="838" y="162" width="302" height="186" rx="24" fill="#0F1A2D" stroke="white" stroke-opacity="0.10"/>
    <path d="M874 296L930 252L996 272L1050 214L1110 236" stroke="#8DE4D3" stroke-width="6" stroke-linecap="round" stroke-linejoin="round"/>
    <path d="M874 314L930 288L996 246L1050 264L1110 218" stroke="#F6D365" stroke-width="6" stroke-linecap="round" stroke-linejoin="round"/>
    <circle cx="930" cy="252" r="8" fill="#8DE4D3"/>
    <circle cx="1050" cy="214" r="8" fill="#8DE4D3"/>
    <circle cx="996" cy="246" r="8" fill="#F6D365"/>
    <circle cx="1110" cy="218" r="8" fill="#F6D365"/>

    <rect x="838" y="382" width="134" height="128" rx="22" fill="#0F1A2D" stroke="white" stroke-opacity="0.08"/>
    <text x="864" y="425" fill="#F6D365" font-family="Segoe UI, Arial, sans-serif" font-size="16" font-weight="700">Relevant Rate</text>
    <text x="864" y="468" fill="white" font-family="Segoe UI, Arial, sans-serif" font-size="36" font-weight="700">10.30%</text>

    <rect x="1000" y="382" width="140" height="128" rx="22" fill="#0F1A2D" stroke="white" stroke-opacity="0.08"/>
    <text x="1026" y="425" fill="#8DE4D3" font-family="Segoe UI, Arial, sans-serif" font-size="16" font-weight="700">Core Files</text>
    <text x="1026" y="468" fill="white" font-family="Segoe UI, Arial, sans-serif" font-size="36" font-weight="700">4 + 2</text>
  </g>
</svg>
